<svg width="16" height="16" viewBox="0 0 16 16" fill="none" xmlns="http://www.w3.org/2000/svg">
<rect width="16" height="16" rx="2" fill="white"/>
<rect x="5.5" y="5.5" width="1.5" height="1.5" fill="black"/>
<rect x="5.5" y="2" width="1.5" height="1.5" fill="#C1C2C4"/>
<rect x="2" y="5.5" width="1.5" height="1.5" fill="#919293"/>
<rect x="5.5" y="9" width="1.5" height="1.5" fill="#919293"/>
<rect x="5.5" y="12.5" width="1.5" height="1.5" fill="#919293"/>
<rect x="2" y="9" width="1.5" height="1.5" fill="#C1C2C4"/>
<rect x="2" y="12.5" width="1.5" height="1.5" fill="#DBDBDB"/>
<rect x="2" y="2" width="1.5" height="1.5" fill="#DBDBDB"/>
<rect x="12.5" y="2" width="1.5" height="1.5" fill="#DBDBDB"/>
<rect x="12.5" y="12.5" width="1.5" height="1.5" fill="#DBDBDB"/>
<rect x="9" y="5.5" width="1.5" height="1.5" fill="#919293"/>
<rect x="9" y="2" width="1.5" height="1.5" fill="#919293"/>
<rect x="12.5" y="5.5" width="1.5" height="1.5" fill="#C1C2C4"/>
<rect x="9" y="9" width="1.5" height="1.5" fill="black"/>
<rect x="9" y="12.5" width="1.5" height="1.5" fill="#C1C2C4"/>
<rect x="12.5" y="9" width="1.5" height="1.5" fill="#919293"/>
</svg>
