<svg width="24" height="24" viewBox="0 0 24 24" fill="none" xmlns="http://www.w3.org/2000/svg">
<rect x="7" y="8" width="3" height="3" fill="black"/>
<rect x="7" y="2" width="3" height="3" fill="#C1C2C4"/>
<rect x="1" y="8" width="3" height="3" fill="#919293"/>
<rect x="7" y="14" width="3" height="3" fill="#919293"/>
<rect x="7" y="20" width="3" height="3" fill="#919293"/>
<rect x="1" y="14" width="3" height="3" fill="#C1C2C4"/>
<rect x="1" y="20" width="3" height="3" fill="#DBDBDB"/>
<rect x="1" y="2" width="3" height="3" fill="#DBDBDB"/>
<rect x="19" y="2" width="3" height="3" fill="#DBDBDB"/>
<rect x="19" y="20" width="3" height="3" fill="#DBDBDB"/>
<rect x="13" y="8" width="3" height="3" fill="#919293"/>
<rect x="13" y="2" width="3" height="3" fill="#919293"/>
<rect x="19" y="8" width="3" height="3" fill="#C1C2C4"/>
<rect x="13" y="14" width="3" height="3" fill="black"/>
<rect x="13" y="20" width="3" height="3" fill="#C1C2C4"/>
<rect x="19" y="14" width="3" height="3" fill="#919293"/>
</svg>
