<svg width="13" height="13" viewBox="0 0 13 13" fill="none" xmlns="http://www.w3.org/2000/svg">
<path d="M5 5H6V6H5V5Z" fill="white"/>
<path d="M5 4H6V5H5V4Z" fill="white"/>
<path d="M4 5H5V6H4V5Z" fill="white"/>
<path d="M4 6H5V7H4V6Z" fill="white"/>
<path d="M3 6H4V7H3V6Z" fill="white"/>
<path d="M2 6H3V7H2V6Z" fill="white"/>
<path d="M0 6H1V7H0V6Z" fill="white"/>
<path d="M4 7H5V8H4V7Z" fill="white"/>
<path d="M5 8H6V9H5V8Z" fill="white"/>
<path d="M6 4H7V5H6V4Z" fill="white"/>
<path d="M6 3H7V4H6V3Z" fill="white"/>
<path d="M6 2H7V3H6V2Z" fill="white"/>
<path d="M6 0H7V1H6V0Z" fill="white"/>
<path d="M5 7H6V8H5V7Z" fill="white"/>
<path d="M7 7H8V8H7V7Z" fill="white"/>
<path d="M8 7H9V8H8V7Z" fill="white"/>
<path d="M8 6H9V7H8V6Z" fill="white"/>
<path d="M8 5H9V6H8V5Z" fill="white"/>
<path d="M9 6H10V7H9V6Z" fill="white"/>
<path d="M10 6H11V7H10V6Z" fill="white"/>
<path d="M12 6H13V7H12V6Z" fill="white"/>
<path d="M7 5H8V6H7V5Z" fill="white"/>
<path d="M7 4H8V5H7V4Z" fill="white"/>
<path d="M6 8H7V9H6V8Z" fill="white"/>
<path d="M7 8H8V9H7V8Z" fill="white"/>
<path d="M6 9H7V10H6V9Z" fill="white"/>
<path d="M6 10H7V11H6V10Z" fill="white"/>
<path d="M6 12H7V13H6V12Z" fill="white"/>
</svg>
